<?xml version="1.0" encoding="UTF-8" standalone="no"?>
<!DOCTYPE svg PUBLIC "-//W3C//DTD SVG 1.1//EN"
 "http://www.w3.org/Graphics/SVG/1.1/DTD/svg11.dtd">
<!-- Generated by graphviz version 7.1.0 (0)
 -->
<!-- Title: dependency&#45;cruiser output Pages: 1 -->
<svg width="937pt" height="1065pt"
 viewBox="0.00 0.00 937.00 1064.96" xmlns="http://www.w3.org/2000/svg" xmlns:xlink="http://www.w3.org/1999/xlink">
<g id="graph0" class="graph" transform="scale(1 1) rotate(0) translate(4 1060.96)">
<title>dependency&#45;cruiser output</title>
<polygon fill="white" stroke="none" points="-4,4 -4,-1060.96 933,-1060.96 933,4 -4,4"/>
<g id="clust1" class="cluster">
<title>cluster_src</title>
<path fill="#ffffff" stroke="black" stroke-width="2" d="M20,-10.96C20,-10.96 909,-10.96 909,-10.96 915,-10.96 921,-16.96 921,-22.96 921,-22.96 921,-1036.96 921,-1036.96 921,-1042.96 915,-1048.96 909,-1048.96 909,-1048.96 20,-1048.96 20,-1048.96 14,-1048.96 8,-1042.96 8,-1036.96 8,-1036.96 8,-22.96 8,-22.96 8,-16.96 14,-10.96 20,-10.96"/>
<text text-anchor="middle" x="464.5" y="-1037.76" font-family="Helvetica,sans-Serif" font-weight="bold" font-size="9.00">src</text>
</g>
<g id="clust2" class="cluster">
<title>cluster_src/containers</title>
<path fill="#ffffff" stroke="black" stroke-width="2" d="M470,-550.96C470,-550.96 711,-550.96 711,-550.96 717,-550.96 723,-556.96 723,-562.96 723,-562.96 723,-650.96 723,-650.96 723,-656.96 717,-662.96 711,-662.96 711,-662.96 470,-662.96 470,-662.96 464,-662.96 458,-656.96 458,-650.96 458,-650.96 458,-562.96 458,-562.96 458,-556.96 464,-550.96 470,-550.96"/>
<text text-anchor="middle" x="590.5" y="-651.76" font-family="Helvetica,sans-Serif" font-weight="bold" font-size="9.00">containers</text>
</g>
<g id="clust3" class="cluster">
<title>cluster_src/game</title>
<path fill="#ffffff" stroke="black" stroke-width="2" d="M165,-98.96C165,-98.96 901,-98.96 901,-98.96 907,-98.96 913,-104.96 913,-110.96 913,-110.96 913,-530.96 913,-530.96 913,-536.96 907,-542.96 901,-542.96 901,-542.96 165,-542.96 165,-542.96 159,-542.96 153,-536.96 153,-530.96 153,-530.96 153,-110.96 153,-110.96 153,-104.96 159,-98.96 165,-98.96"/>
<text text-anchor="middle" x="533" y="-531.76" font-family="Helvetica,sans-Serif" font-weight="bold" font-size="9.00">game</text>
</g>
<g id="clust4" class="cluster">
<title>cluster_src/game/components</title>
<path fill="#ffffff" stroke="black" stroke-width="2" d="M645,-370.96C645,-370.96 814,-370.96 814,-370.96 820,-370.96 826,-376.96 826,-382.96 826,-382.96 826,-504.96 826,-504.96 826,-510.96 820,-516.96 814,-516.96 814,-516.96 645,-516.96 645,-516.96 639,-516.96 633,-510.96 633,-504.96 633,-504.96 633,-382.96 633,-382.96 633,-376.96 639,-370.96 645,-370.96"/>
<text text-anchor="middle" x="729.5" y="-505.76" font-family="Helvetica,sans-Serif" font-weight="bold" font-size="9.00">components</text>
</g>
<g id="clust5" class="cluster">
<title>cluster_src/game/components/cell</title>
<path fill="#ffffff" stroke="black" stroke-width="2" d="M760,-378.96C760,-378.96 806,-378.96 806,-378.96 812,-378.96 818,-384.96 818,-390.96 818,-390.96 818,-418.96 818,-418.96 818,-424.96 812,-430.96 806,-430.96 806,-430.96 760,-430.96 760,-430.96 754,-430.96 748,-424.96 748,-418.96 748,-418.96 748,-390.96 748,-390.96 748,-384.96 754,-378.96 760,-378.96"/>
<text text-anchor="middle" x="783" y="-419.76" font-family="Helvetica,sans-Serif" font-weight="bold" font-size="9.00">cell</text>
</g>
<g id="clust6" class="cluster">
<title>cluster_src/game/components/grid</title>
<path fill="#ffffff" stroke="black" stroke-width="2" d="M653,-438.96C653,-438.96 699,-438.96 699,-438.96 705,-438.96 711,-444.96 711,-450.96 711,-450.96 711,-478.96 711,-478.96 711,-484.96 705,-490.96 699,-490.96 699,-490.96 653,-490.96 653,-490.96 647,-490.96 641,-484.96 641,-478.96 641,-478.96 641,-450.96 641,-450.96 641,-444.96 647,-438.96 653,-438.96"/>
<text text-anchor="middle" x="676" y="-479.76" font-family="Helvetica,sans-Serif" font-weight="bold" font-size="9.00">grid</text>
</g>
<g id="clust7" class="cluster">
<title>cluster_src/game/components/shapes</title>
<path fill="#ffffff" stroke="black" stroke-width="2" d="M653,-378.96C653,-378.96 699,-378.96 699,-378.96 705,-378.96 711,-384.96 711,-390.96 711,-390.96 711,-418.96 711,-418.96 711,-424.96 705,-430.96 699,-430.96 699,-430.96 653,-430.96 653,-430.96 647,-430.96 641,-424.96 641,-418.96 641,-418.96 641,-390.96 641,-390.96 641,-384.96 647,-378.96 653,-378.96"/>
<text text-anchor="middle" x="676" y="-419.76" font-family="Helvetica,sans-Serif" font-weight="bold" font-size="9.00">shapes</text>
</g>
<g id="clust8" class="cluster">
<title>cluster_src/game/components/vector</title>
<path fill="#ffffff" stroke="black" stroke-width="2" d="M760,-438.96C760,-438.96 806,-438.96 806,-438.96 812,-438.96 818,-444.96 818,-450.96 818,-450.96 818,-478.96 818,-478.96 818,-484.96 812,-490.96 806,-490.96 806,-490.96 760,-490.96 760,-490.96 754,-490.96 748,-484.96 748,-478.96 748,-478.96 748,-450.96 748,-450.96 748,-444.96 754,-438.96 760,-438.96"/>
<text text-anchor="middle" x="783" y="-479.76" font-family="Helvetica,sans-Serif" font-weight="bold" font-size="9.00">vector</text>
</g>
<g id="clust9" class="cluster">
<title>cluster_src/game/entity</title>
<path fill="#ffffff" stroke="black" stroke-width="2" d="M322.5,-130.96C322.5,-130.96 368.5,-130.96 368.5,-130.96 374.5,-130.96 380.5,-136.96 380.5,-142.96 380.5,-142.96 380.5,-170.96 380.5,-170.96 380.5,-176.96 374.5,-182.96 368.5,-182.96 368.5,-182.96 322.5,-182.96 322.5,-182.96 316.5,-182.96 310.5,-176.96 310.5,-170.96 310.5,-170.96 310.5,-142.96 310.5,-142.96 310.5,-136.96 316.5,-130.96 322.5,-130.96"/>
<text text-anchor="middle" x="345.5" y="-171.76" font-family="Helvetica,sans-Serif" font-weight="bold" font-size="9.00">entity</text>
</g>
<g id="clust10" class="cluster">
<title>cluster_src/game/interfaces</title>
<path fill="#ffffff" stroke="black" stroke-width="2" d="M653,-258.96C653,-258.96 699,-258.96 699,-258.96 705,-258.96 711,-264.96 711,-270.96 711,-270.96 711,-298.96 711,-298.96 711,-304.96 705,-310.96 699,-310.96 699,-310.96 653,-310.96 653,-310.96 647,-310.96 641,-304.96 641,-298.96 641,-298.96 641,-270.96 641,-270.96 641,-264.96 647,-258.96 653,-258.96"/>
<text text-anchor="middle" x="676" y="-299.76" font-family="Helvetica,sans-Serif" font-weight="bold" font-size="9.00">interfaces</text>
</g>
<g id="clust11" class="cluster">
<title>cluster_src/game/managers</title>
<path fill="#ffffff" stroke="black" stroke-width="2" d="M290.5,-190.96C290.5,-190.96 569.5,-190.96 569.5,-190.96 575.5,-190.96 581.5,-196.96 581.5,-202.96 581.5,-202.96 581.5,-504.96 581.5,-504.96 581.5,-510.96 575.5,-516.96 569.5,-516.96 569.5,-516.96 290.5,-516.96 290.5,-516.96 284.5,-516.96 278.5,-510.96 278.5,-504.96 278.5,-504.96 278.5,-202.96 278.5,-202.96 278.5,-196.96 284.5,-190.96 290.5,-190.96"/>
<text text-anchor="middle" x="430" y="-505.76" font-family="Helvetica,sans-Serif" font-weight="bold" font-size="9.00">managers</text>
</g>
<g id="clust12" class="cluster">
<title>cluster_src/game/managers/applicationManager</title>
<path fill="#ffffff" stroke="black" stroke-width="2" d="M298.5,-378.96C298.5,-378.96 393.5,-378.96 393.5,-378.96 399.5,-378.96 405.5,-384.96 405.5,-390.96 405.5,-390.96 405.5,-418.96 405.5,-418.96 405.5,-424.96 399.5,-430.96 393.5,-430.96 393.5,-430.96 298.5,-430.96 298.5,-430.96 292.5,-430.96 286.5,-424.96 286.5,-418.96 286.5,-418.96 286.5,-390.96 286.5,-390.96 286.5,-384.96 292.5,-378.96 298.5,-378.96"/>
<text text-anchor="middle" x="346" y="-419.76" font-family="Helvetica,sans-Serif" font-weight="bold" font-size="9.00">applicationManager</text>
</g>
<g id="clust13" class="cluster">
<title>cluster_src/game/managers/containersManager</title>
<path fill="#ffffff" stroke="black" stroke-width="2" d="M299.5,-438.96C299.5,-438.96 391.5,-438.96 391.5,-438.96 397.5,-438.96 403.5,-444.96 403.5,-450.96 403.5,-450.96 403.5,-478.96 403.5,-478.96 403.5,-484.96 397.5,-490.96 391.5,-490.96 391.5,-490.96 299.5,-490.96 299.5,-490.96 293.5,-490.96 287.5,-484.96 287.5,-478.96 287.5,-478.96 287.5,-450.96 287.5,-450.96 287.5,-444.96 293.5,-438.96 299.5,-438.96"/>
<text text-anchor="middle" x="345.5" y="-479.76" font-family="Helvetica,sans-Serif" font-weight="bold" font-size="9.00">containersManager</text>
</g>
<g id="clust14" class="cluster">
<title>cluster_src/game/managers/entityManager</title>
<path fill="#ffffff" stroke="black" stroke-width="2" d="M493.5,-198.96C493.5,-198.96 561.5,-198.96 561.5,-198.96 567.5,-198.96 573.5,-204.96 573.5,-210.96 573.5,-210.96 573.5,-238.96 573.5,-238.96 573.5,-244.96 567.5,-250.96 561.5,-250.96 561.5,-250.96 493.5,-250.96 493.5,-250.96 487.5,-250.96 481.5,-244.96 481.5,-238.96 481.5,-238.96 481.5,-210.96 481.5,-210.96 481.5,-204.96 487.5,-198.96 493.5,-198.96"/>
<text text-anchor="middle" x="527.5" y="-239.76" font-family="Helvetica,sans-Serif" font-weight="bold" font-size="9.00">entityManager</text>
</g>
<g id="clust15" class="cluster">
<title>cluster_src/game/managers/eventManager</title>
<path fill="#ffffff" stroke="black" stroke-width="2" d="M494.5,-258.96C494.5,-258.96 561.5,-258.96 561.5,-258.96 567.5,-258.96 573.5,-264.96 573.5,-270.96 573.5,-270.96 573.5,-298.96 573.5,-298.96 573.5,-304.96 567.5,-310.96 561.5,-310.96 561.5,-310.96 494.5,-310.96 494.5,-310.96 488.5,-310.96 482.5,-304.96 482.5,-298.96 482.5,-298.96 482.5,-270.96 482.5,-270.96 482.5,-264.96 488.5,-258.96 494.5,-258.96"/>
<text text-anchor="middle" x="528" y="-299.76" font-family="Helvetica,sans-Serif" font-weight="bold" font-size="9.00">eventManager</text>
</g>
<g id="clust16" class="cluster">
<title>cluster_src/game/managers/idManager</title>
<path fill="#ffffff" stroke="black" stroke-width="2" d="M322.5,-318.96C322.5,-318.96 369.5,-318.96 369.5,-318.96 375.5,-318.96 381.5,-324.96 381.5,-330.96 381.5,-330.96 381.5,-358.96 381.5,-358.96 381.5,-364.96 375.5,-370.96 369.5,-370.96 369.5,-370.96 322.5,-370.96 322.5,-370.96 316.5,-370.96 310.5,-364.96 310.5,-358.96 310.5,-358.96 310.5,-330.96 310.5,-330.96 310.5,-324.96 316.5,-318.96 322.5,-318.96"/>
<text text-anchor="middle" x="346" y="-359.76" font-family="Helvetica,sans-Serif" font-weight="bold" font-size="9.00">idManager</text>
</g>
<g id="clust17" class="cluster">
<title>cluster_src/game/managers/queries</title>
<path fill="#ffffff" stroke="black" stroke-width="2" d="M322.5,-258.96C322.5,-258.96 368.5,-258.96 368.5,-258.96 374.5,-258.96 380.5,-264.96 380.5,-270.96 380.5,-270.96 380.5,-298.96 380.5,-298.96 380.5,-304.96 374.5,-310.96 368.5,-310.96 368.5,-310.96 322.5,-310.96 322.5,-310.96 316.5,-310.96 310.5,-304.96 310.5,-298.96 310.5,-298.96 310.5,-270.96 310.5,-270.96 310.5,-264.96 316.5,-258.96 322.5,-258.96"/>
<text text-anchor="middle" x="345.5" y="-299.76" font-family="Helvetica,sans-Serif" font-weight="bold" font-size="9.00">queries</text>
</g>
<g id="clust18" class="cluster">
<title>cluster_src/game/managers/queryMap</title>
<path fill="#ffffff" stroke="black" stroke-width="2" d="M504.5,-318.96C504.5,-318.96 550.5,-318.96 550.5,-318.96 556.5,-318.96 562.5,-324.96 562.5,-330.96 562.5,-330.96 562.5,-358.96 562.5,-358.96 562.5,-364.96 556.5,-370.96 550.5,-370.96 550.5,-370.96 504.5,-370.96 504.5,-370.96 498.5,-370.96 492.5,-364.96 492.5,-358.96 492.5,-358.96 492.5,-330.96 492.5,-330.96 492.5,-324.96 498.5,-318.96 504.5,-318.96"/>
<text text-anchor="middle" x="527.5" y="-359.76" font-family="Helvetica,sans-Serif" font-weight="bold" font-size="9.00">queryMap</text>
</g>
<g id="clust19" class="cluster">
<title>cluster_src/game/managers/sceneManager</title>
<path fill="#ffffff" stroke="black" stroke-width="2" d="M301,-198.96C301,-198.96 390,-198.96 390,-198.96 396,-198.96 402,-204.96 402,-210.96 402,-210.96 402,-238.96 402,-238.96 402,-244.96 396,-250.96 390,-250.96 390,-250.96 301,-250.96 301,-250.96 295,-250.96 289,-244.96 289,-238.96 289,-238.96 289,-210.96 289,-210.96 289,-204.96 295,-198.96 301,-198.96"/>
<text text-anchor="middle" x="345.5" y="-239.76" font-family="Helvetica,sans-Serif" font-weight="bold" font-size="9.00">sceneManager</text>
</g>
<g id="clust20" class="cluster">
<title>cluster_src/game/systems</title>
<path fill="#ffffff" stroke="black" stroke-width="2" d="M173,-451.96C173,-451.96 219,-451.96 219,-451.96 225,-451.96 231,-457.96 231,-463.96 231,-463.96 231,-491.96 231,-491.96 231,-497.96 225,-503.96 219,-503.96 219,-503.96 173,-503.96 173,-503.96 167,-503.96 161,-497.96 161,-491.96 161,-491.96 161,-463.96 161,-463.96 161,-457.96 167,-451.96 173,-451.96"/>
<text text-anchor="middle" x="196" y="-492.76" font-family="Helvetica,sans-Serif" font-weight="bold" font-size="9.00">systems</text>
</g>
<g id="clust21" class="cluster">
<title>cluster_src/game/types</title>
<path fill="#ffffff" stroke="black" stroke-width="2" d="M847,-421.96C847,-421.96 893,-421.96 893,-421.96 899,-421.96 905,-427.96 905,-433.96 905,-433.96 905,-461.96 905,-461.96 905,-467.96 899,-473.96 893,-473.96 893,-473.96 847,-473.96 847,-473.96 841,-473.96 835,-467.96 835,-461.96 835,-461.96 835,-433.96 835,-433.96 835,-427.96 841,-421.96 847,-421.96"/>
<text text-anchor="middle" x="870" y="-462.76" font-family="Helvetica,sans-Serif" font-weight="bold" font-size="9.00">types</text>
</g>
<g id="clust22" class="cluster">
<title>cluster_src/scenes</title>
<path fill="#ffffff" stroke="black" stroke-width="2" d="M158,-874.96C158,-874.96 383,-874.96 383,-874.96 389,-874.96 395,-880.96 395,-886.96 395,-886.96 395,-914.96 395,-914.96 395,-920.96 389,-926.96 383,-926.96 383,-926.96 158,-926.96 158,-926.96 152,-926.96 146,-920.96 146,-914.96 146,-914.96 146,-886.96 146,-886.96 146,-880.96 152,-874.96 158,-874.96"/>
<text text-anchor="middle" x="270.5" y="-915.76" font-family="Helvetica,sans-Serif" font-weight="bold" font-size="9.00">scenes</text>
</g>
<g id="clust23" class="cluster">
<title>cluster_src/shared</title>
<path fill="#ffffff" stroke="black" stroke-width="2" d="M633,-670.96C633,-670.96 815,-670.96 815,-670.96 821,-670.96 827,-676.96 827,-682.96 827,-682.96 827,-1010.96 827,-1010.96 827,-1016.96 821,-1022.96 815,-1022.96 815,-1022.96 633,-1022.96 633,-1022.96 627,-1022.96 621,-1016.96 621,-1010.96 621,-1010.96 621,-682.96 621,-682.96 621,-676.96 627,-670.96 633,-670.96"/>
<text text-anchor="middle" x="724" y="-1011.76" font-family="Helvetica,sans-Serif" font-weight="bold" font-size="9.00">shared</text>
</g>
<g id="clust24" class="cluster">
<title>cluster_src/shared/functors</title>
<path fill="#ffffff" stroke="black" stroke-width="2" d="M641,-678.96C641,-678.96 711,-678.96 711,-678.96 717,-678.96 723,-684.96 723,-690.96 723,-690.96 723,-958.96 723,-958.96 723,-964.96 717,-970.96 711,-970.96 711,-970.96 641,-970.96 641,-970.96 635,-970.96 629,-964.96 629,-958.96 629,-958.96 629,-690.96 629,-690.96 629,-684.96 635,-678.96 641,-678.96"/>
<text text-anchor="middle" x="676" y="-959.76" font-family="Helvetica,sans-Serif" font-weight="bold" font-size="9.00">functors</text>
</g>
<g id="clust25" class="cluster">
<title>cluster_src/shared/functors/DFSearch</title>
<path fill="#ffffff" stroke="black" stroke-width="2" d="M653,-892.96C653,-892.96 699,-892.96 699,-892.96 705,-892.96 711,-898.96 711,-904.96 711,-904.96 711,-932.96 711,-932.96 711,-938.96 705,-944.96 699,-944.96 699,-944.96 653,-944.96 653,-944.96 647,-944.96 641,-938.96 641,-932.96 641,-932.96 641,-904.96 641,-904.96 641,-898.96 647,-892.96 653,-892.96"/>
<text text-anchor="middle" x="676" y="-933.76" font-family="Helvetica,sans-Serif" font-weight="bold" font-size="9.00">DFSearch</text>
</g>
<g id="clust26" class="cluster">
<title>cluster_src/shared/functors/colorChoose</title>
<path fill="#ffffff" stroke="black" stroke-width="2" d="M649,-832.96C649,-832.96 703,-832.96 703,-832.96 709,-832.96 715,-838.96 715,-844.96 715,-844.96 715,-872.96 715,-872.96 715,-878.96 709,-884.96 703,-884.96 703,-884.96 649,-884.96 649,-884.96 643,-884.96 637,-878.96 637,-872.96 637,-872.96 637,-844.96 637,-844.96 637,-838.96 643,-832.96 649,-832.96"/>
<text text-anchor="middle" x="676" y="-873.76" font-family="Helvetica,sans-Serif" font-weight="bold" font-size="9.00">colorChoose</text>
</g>
<g id="clust27" class="cluster">
<title>cluster_src/shared/functors/drawGrid</title>
<path fill="#ffffff" stroke="black" stroke-width="2" d="M653,-772.96C653,-772.96 699,-772.96 699,-772.96 705,-772.96 711,-778.96 711,-784.96 711,-784.96 711,-812.96 711,-812.96 711,-818.96 705,-824.96 699,-824.96 699,-824.96 653,-824.96 653,-824.96 647,-824.96 641,-818.96 641,-812.96 641,-812.96 641,-784.96 641,-784.96 641,-778.96 647,-772.96 653,-772.96"/>
<text text-anchor="middle" x="676" y="-813.76" font-family="Helvetica,sans-Serif" font-weight="bold" font-size="9.00">drawGrid</text>
</g>
<g id="clust28" class="cluster">
<title>cluster_src/shared/functors/vec2</title>
<path fill="#ffffff" stroke="black" stroke-width="2" d="M653,-712.96C653,-712.96 699,-712.96 699,-712.96 705,-712.96 711,-718.96 711,-724.96 711,-724.96 711,-752.96 711,-752.96 711,-758.96 705,-764.96 699,-764.96 699,-764.96 653,-764.96 653,-764.96 647,-764.96 641,-758.96 641,-752.96 641,-752.96 641,-724.96 641,-724.96 641,-718.96 647,-712.96 653,-712.96"/>
<text text-anchor="middle" x="676" y="-753.76" font-family="Helvetica,sans-Serif" font-weight="bold" font-size="9.00">vec2</text>
</g>
<!-- src/containers/button.ts -->
<g id="node1" class="node">
<title>src/containers/button.ts</title>
<g id="a_node1"><a xlink:href="src/containers/button.ts" xlink:title="button.ts">
<path fill="#ddfeff" stroke="black" d="M551,-576.96C551,-576.96 504,-576.96 504,-576.96 501,-576.96 498,-573.96 498,-570.96 498,-570.96 498,-564.96 498,-564.96 498,-561.96 501,-558.96 504,-558.96 504,-558.96 551,-558.96 551,-558.96 554,-558.96 557,-561.96 557,-564.96 557,-564.96 557,-570.96 557,-570.96 557,-573.96 554,-576.96 551,-576.96"/>
<text text-anchor="start" x="506" y="-565.76" font-family="Helvetica,sans-Serif" font-size="9.00">button.ts</text>
</a>
</g>
</g>
<!-- src/game/components/grid/index.ts -->
<g id="node2" class="node">
<title>src/game/components/grid/index.ts</title>
<g id="a_node2"><a xlink:href="src/game/components/grid/index.ts" xlink:title="index.ts">
<path fill="#ddfeff" stroke="black" d="M697,-464.96C697,-464.96 655,-464.96 655,-464.96 652,-464.96 649,-461.96 649,-458.96 649,-458.96 649,-452.96 649,-452.96 649,-449.96 652,-446.96 655,-446.96 655,-446.96 697,-446.96 697,-446.96 700,-446.96 703,-449.96 703,-452.96 703,-452.96 703,-458.96 703,-458.96 703,-461.96 700,-464.96 697,-464.96"/>
<text text-anchor="start" x="657.5" y="-453.76" font-family="Helvetica,sans-Serif" font-size="9.00">index.ts</text>
</a>
</g>
</g>
<!-- src/containers/button.ts&#45;&gt;src/game/components/grid/index.ts -->
<g id="edge1" class="edge">
<title>src/containers/button.ts&#45;&gt;src/game/components/grid/index.ts</title>
<path fill="none" stroke="#000000" stroke-width="2" stroke-opacity="0.200000" d="M540.74,-558.61C566.22,-539.12 625.16,-494.07 655.77,-470.67"/>
<polygon fill="#000000" fill-opacity="0.200000" stroke="#000000" stroke-width="2" stroke-opacity="0.200000" points="657,-472.37 660.49,-467.05 654.45,-469.03 657,-472.37"/>
</g>
<!-- src/game/components/shapes/index.ts -->
<g id="node3" class="node">
<title>src/game/components/shapes/index.ts</title>
<g id="a_node3"><a xlink:href="src/game/components/shapes/index.ts" xlink:title="index.ts">
<path fill="#ddfeff" stroke="black" d="M697,-404.96C697,-404.96 655,-404.96 655,-404.96 652,-404.96 649,-401.96 649,-398.96 649,-398.96 649,-392.96 649,-392.96 649,-389.96 652,-386.96 655,-386.96 655,-386.96 697,-386.96 697,-386.96 700,-386.96 703,-389.96 703,-392.96 703,-392.96 703,-398.96 703,-398.96 703,-401.96 700,-404.96 697,-404.96"/>
<text text-anchor="start" x="657.5" y="-393.76" font-family="Helvetica,sans-Serif" font-size="9.00">index.ts</text>
</a>
</g>
</g>
<!-- src/containers/button.ts&#45;&gt;src/game/components/shapes/index.ts -->
<g id="edge2" class="edge">
<title>src/containers/button.ts&#45;&gt;src/game/components/shapes/index.ts</title>
<path fill="none" stroke="#000000" stroke-width="2" stroke-opacity="0.200000" d="M533.66,-558.57C546.42,-535.81 581.36,-476.66 621,-435.96 630.34,-426.37 642.16,-417.34 652.35,-410.3"/>
<polygon fill="#000000" fill-opacity="0.200000" stroke="#000000" stroke-width="2" stroke-opacity="0.200000" points="653.44,-412.1 657.25,-407.01 651.1,-408.61 653.44,-412.1"/>
</g>
<!-- src/game/components/vector/index.ts -->
<g id="node4" class="node">
<title>src/game/components/vector/index.ts</title>
<g id="a_node4"><a xlink:href="src/game/components/vector/index.ts" xlink:title="index.ts">
<path fill="#ddfeff" stroke="black" d="M804,-464.96C804,-464.96 762,-464.96 762,-464.96 759,-464.96 756,-461.96 756,-458.96 756,-458.96 756,-452.96 756,-452.96 756,-449.96 759,-446.96 762,-446.96 762,-446.96 804,-446.96 804,-446.96 807,-446.96 810,-449.96 810,-452.96 810,-452.96 810,-458.96 810,-458.96 810,-461.96 807,-464.96 804,-464.96"/>
<text text-anchor="start" x="764.5" y="-453.76" font-family="Helvetica,sans-Serif" font-size="9.00">index.ts</text>
</a>
</g>
</g>
<!-- src/containers/button.ts&#45;&gt;src/game/components/vector/index.ts -->
<g id="edge3" class="edge">
<title>src/containers/button.ts&#45;&gt;src/game/components/vector/index.ts</title>
<path fill="none" stroke="#000000" stroke-width="2" stroke-opacity="0.200000" d="M557.45,-574.36C604.83,-584.14 696.31,-600 723,-582.96 761.12,-558.64 774.99,-502.63 779.73,-473.81"/>
<polygon fill="#000000" fill-opacity="0.200000" stroke="#000000" stroke-width="2" stroke-opacity="0.200000" points="781.76,-474.4 780.56,-468.16 777.61,-473.79 781.76,-474.4"/>
</g>
<!-- src/game/interfaces/index.ts -->
<g id="node5" class="node">
<title>src/game/interfaces/index.ts</title>
<g id="a_node5"><a xlink:href="src/game/interfaces/index.ts" xlink:title="index.ts">
<path fill="#ddfeff" stroke="black" d="M697,-284.96C697,-284.96 655,-284.96 655,-284.96 652,-284.96 649,-281.96 649,-278.96 649,-278.96 649,-272.96 649,-272.96 649,-269.96 652,-266.96 655,-266.96 655,-266.96 697,-266.96 697,-266.96 700,-266.96 703,-269.96 703,-272.96 703,-272.96 703,-278.96 703,-278.96 703,-281.96 700,-284.96 697,-284.96"/>
<text text-anchor="start" x="657.5" y="-273.76" font-family="Helvetica,sans-Serif" font-size="9.00">index.ts</text>
</a>
</g>
</g>
<!-- src/containers/button.ts&#45;&gt;src/game/interfaces/index.ts -->
<g id="edge4" class="edge">
<title>src/containers/button.ts&#45;&gt;src/game/interfaces/index.ts</title>
<path fill="none" stroke="#000000" stroke-width="2" stroke-opacity="0.200000" d="M532.78,-558.7C545.68,-530.84 585.5,-445.5 621,-375.96 636.01,-346.57 654.45,-312.9 665.44,-293.09"/>
<polygon fill="#000000" fill-opacity="0.200000" stroke="#000000" stroke-width="2" stroke-opacity="0.200000" points="667.24,-294.17 668.32,-287.91 663.57,-292.13 667.24,-294.17"/>
</g>
<!-- src/game/managers/applicationManager/index.ts -->
<g id="node6" class="node">
<title>src/game/managers/applicationManager/index.ts</title>
<g id="a_node6"><a xlink:href="src/game/managers/applicationManager/index.ts" xlink:title="index.ts">
<path fill="#ddfeff" stroke="black" d="M366.5,-404.96C366.5,-404.96 324.5,-404.96 324.5,-404.96 321.5,-404.96 318.5,-401.96 318.5,-398.96 318.5,-398.96 318.5,-392.96 318.5,-392.96 318.5,-389.96 321.5,-386.96 324.5,-386.96 324.5,-386.96 366.5,-386.96 366.5,-386.96 369.5,-386.96 372.5,-389.96 372.5,-392.96 372.5,-392.96 372.5,-398.96 372.5,-398.96 372.5,-401.96 369.5,-404.96 366.5,-404.96"/>
<text text-anchor="start" x="327" y="-393.76" font-family="Helvetica,sans-Serif" font-size="9.00">index.ts</text>
</a>
</g>
</g>
<!-- src/containers/button.ts&#45;&gt;src/game/managers/applicationManager/index.ts -->
<g id="edge5" class="edge">
<title>src/containers/button.ts&#45;&gt;src/game/managers/applicationManager/index.ts</title>
<path fill="none" stroke="#000000" stroke-width="2" stroke-opacity="0.200000" d="M519.23,-558.64C501.36,-536.04 453.26,-477.21 405.5,-435.96 394.47,-426.43 381.09,-417.2 369.87,-410.02"/>
<polygon fill="#000000" fill-opacity="0.200000" stroke="#000000" stroke-width="2" stroke-opacity="0.200000" points="371.26,-408.41 365.06,-407 369.03,-411.97 371.26,-408.41"/>
</g>
<!-- src/shared/constants.ts -->
<g id="node7" class="node">
<title>src/shared/constants.ts</title>
<g id="a_node7"><a xlink:href="src/shared/constants.ts" xlink:title="constants.ts">
<path fill="#ddfeff" stroke="black" d="M813,-696.96C813,-696.96 753,-696.96 753,-696.96 750,-696.96 747,-693.96 747,-690.96 747,-690.96 747,-684.96 747,-684.96 747,-681.96 750,-678.96 753,-678.96 753,-678.96 813,-678.96 813,-678.96 816,-678.96 819,-681.96 819,-684.96 819,-684.96 819,-690.96 819,-690.96 819,-693.96 816,-696.96 813,-696.96"/>
<text text-anchor="start" x="755" y="-685.76" font-family="Helvetica,sans-Serif" font-size="9.00">constants.ts</text>
</a>
</g>
</g>
<!-- src/containers/button.ts&#45;&gt;src/shared/constants.ts -->
<g id="edge6" class="edge">
<title>src/containers/button.ts&#45;&gt;src/shared/constants.ts</title>
<path fill="none" stroke="#000000" stroke-width="2" stroke-opacity="0.200000" d="M557.28,-573.52C567.48,-575.9 578.91,-579.04 589,-582.96 654.78,-608.53 726.28,-651.98 760.88,-674.11"/>
<polygon fill="#000000" fill-opacity="0.200000" stroke="#000000" stroke-width="2" stroke-opacity="0.200000" points="759.35,-675.63 765.53,-677.11 761.63,-672.1 759.35,-675.63"/>
</g>
<!-- src/game/components/grid/index.ts&#45;&gt;src/game/components/vector/index.ts -->
<g id="edge16" class="edge">
<title>src/game/components/grid/index.ts&#45;&gt;src/game/components/vector/index.ts</title>
<path fill="none" stroke="#000000" stroke-width="2" stroke-opacity="0.200000" d="M703.5,-455.96C716.55,-455.96 732.48,-455.96 746.57,-455.96"/>
<polygon fill="#000000" fill-opacity="0.200000" stroke="#000000" stroke-width="2" stroke-opacity="0.200000" points="746.49,-458.06 752.49,-455.96 746.49,-453.86 746.49,-458.06"/>
</g>
<!-- src/game/components/grid/index.ts&#45;&gt;src/shared/constants.ts -->
<g id="edge13" class="edge">
<title>src/game/components/grid/index.ts&#45;&gt;src/shared/constants.ts</title>
<path fill="none" stroke="#000000" stroke-width="2" stroke-opacity="0.200000" d="M681.9,-465.27C690.54,-481.77 708.89,-517.3 723,-547.96 743.02,-591.47 764.32,-643.7 775.02,-670.38"/>
<polygon fill="#000000" fill-opacity="0.200000" stroke="#000000" stroke-width="2" stroke-opacity="0.200000" points="773.04,-671.1 777.22,-675.89 776.94,-669.54 773.04,-671.1"/>
</g>
<!-- src/game/components/cell/index.ts -->
<g id="node9" class="node">
<title>src/game/components/cell/index.ts</title>
<g id="a_node9"><a xlink:href="src/game/components/cell/index.ts" xlink:title="index.ts">
<path fill="#ddfeff" stroke="black" d="M804,-404.96C804,-404.96 762,-404.96 762,-404.96 759,-404.96 756,-401.96 756,-398.96 756,-398.96 756,-392.96 756,-392.96 756,-389.96 759,-386.96 762,-386.96 762,-386.96 804,-386.96 804,-386.96 807,-386.96 810,-389.96 810,-392.96 810,-392.96 810,-398.96 810,-398.96 810,-401.96 807,-404.96 804,-404.96"/>
<text text-anchor="start" x="764.5" y="-393.76" font-family="Helvetica,sans-Serif" font-size="9.00">index.ts</text>
</a>
</g>
</g>
<!-- src/game/components/grid/index.ts&#45;&gt;src/game/components/cell/index.ts -->
<g id="edge15" class="edge">
<title>src/game/components/grid/index.ts&#45;&gt;src/game/components/cell/index.ts</title>
<path fill="none" stroke="#000000" stroke-width="2" stroke-opacity="0.200000" d="M697.89,-446.65C705.86,-442.92 714.96,-438.45 723,-433.96 736.14,-426.63 750.33,-417.53 761.5,-410.07"/>
<polygon fill="#000000" fill-opacity="0.200000" stroke="#000000" stroke-width="2" stroke-opacity="0.200000" points="762.4,-412 766.2,-406.91 760.05,-408.52 762.4,-412"/>
</g>
<!-- src/shared/functors/colorChoose/index.ts -->
<g id="node14" class="node">
<title>src/shared/functors/colorChoose/index.ts</title>
<g id="a_node14"><a xlink:href="src/shared/functors/colorChoose/index.ts" xlink:title="index.ts">
<path fill="#ddfeff" stroke="black" d="M697,-858.96C697,-858.96 655,-858.96 655,-858.96 652,-858.96 649,-855.96 649,-852.96 649,-852.96 649,-846.96 649,-846.96 649,-843.96 652,-840.96 655,-840.96 655,-840.96 697,-840.96 697,-840.96 700,-840.96 703,-843.96 703,-846.96 703,-846.96 703,-852.96 703,-852.96 703,-855.96 700,-858.96 697,-858.96"/>
<text text-anchor="start" x="657.5" y="-847.76" font-family="Helvetica,sans-Serif" font-size="9.00">index.ts</text>
</a>
</g>
</g>
<!-- src/game/components/grid/index.ts&#45;&gt;src/shared/functors/colorChoose/index.ts -->
<g id="edge14" class="edge">
<title>src/game/components/grid/index.ts&#45;&gt;src/shared/functors/colorChoose/index.ts</title>
<path fill="none" stroke="#000000" stroke-width="2" stroke-opacity="0.200000" d="M665.95,-465.34C649.42,-481.53 617.12,-516.59 605,-553.96 595.82,-582.29 588.25,-797.35 605,-821.96 613.01,-833.73 626.81,-840.56 640.12,-844.51"/>
<polygon fill="#000000" fill-opacity="0.200000" stroke="#000000" stroke-width="2" stroke-opacity="0.200000" points="639.47,-846.51 645.8,-845.97 640.51,-842.44 639.47,-846.51"/>
</g>
<!-- src/shared/functors/vec2/index.ts -->
<g id="node12" class="node">
<title>src/shared/functors/vec2/index.ts</title>
<g id="a_node12"><a xlink:href="src/shared/functors/vec2/index.ts" xlink:title="index.ts">
<path fill="#ddfeff" stroke="black" d="M697,-738.96C697,-738.96 655,-738.96 655,-738.96 652,-738.96 649,-735.96 649,-732.96 649,-732.96 649,-726.96 649,-726.96 649,-723.96 652,-720.96 655,-720.96 655,-720.96 697,-720.96 697,-720.96 700,-720.96 703,-723.96 703,-726.96 703,-726.96 703,-732.96 703,-732.96 703,-735.96 700,-738.96 697,-738.96"/>
<text text-anchor="start" x="657.5" y="-727.76" font-family="Helvetica,sans-Serif" font-size="9.00">index.ts</text>
</a>
</g>
</g>
<!-- src/game/components/vector/index.ts&#45;&gt;src/shared/functors/vec2/index.ts -->
<g id="edge17" class="edge">
<title>src/game/components/vector/index.ts&#45;&gt;src/shared/functors/vec2/index.ts</title>
<path fill="none" stroke="#000000" stroke-width="2" stroke-opacity="0.200000" d="M781.14,-465.41C777.12,-507.7 758.8,-679.21 723,-716.96 719.87,-720.27 715.97,-722.75 711.77,-724.62"/>
<polygon fill="#000000" fill-opacity="0.200000" stroke="#000000" stroke-width="2" stroke-opacity="0.200000" points="711.3,-722.55 706.32,-726.5 712.68,-726.52 711.3,-722.55"/>
</g>
<!-- src/game/interfaces/index.ts&#45;&gt;src/game/components/cell/index.ts -->
<g id="edge21" class="edge">
<title>src/game/interfaces/index.ts&#45;&gt;src/game/components/cell/index.ts</title>
<path fill="none" stroke="#000000" stroke-width="2" stroke-opacity="0.200000" d="M685.24,-285.38C703.18,-305.88 745.95,-354.76 768.13,-380.11"/>
<polygon fill="#000000" fill-opacity="0.200000" stroke="#000000" stroke-width="2" stroke-opacity="0.200000" points="766.27,-381.18 771.81,-384.31 769.44,-378.41 766.27,-381.18"/>
</g>
<!-- src/game/managers/applicationManager/index.ts&#45;&gt;src/game/interfaces/index.ts -->
<g id="edge23" class="edge">
<title>src/game/managers/applicationManager/index.ts&#45;&gt;src/game/interfaces/index.ts</title>
<path fill="none" stroke="#000000" stroke-width="2" stroke-opacity="0.200000" d="M372.65,-394.69C431.37,-391.66 570.07,-383.59 589,-373.96 624.76,-355.78 652.23,-315.8 665.74,-292.92"/>
<polygon fill="#000000" fill-opacity="0.200000" stroke="#000000" stroke-width="2" stroke-opacity="0.200000" points="667.42,-294.22 668.58,-287.97 663.77,-292.13 667.42,-294.22"/>
</g>
<!-- src/game/managers/applicationManager/index.ts&#45;&gt;src/game/components/cell/index.ts -->
<g id="edge22" class="edge">
<title>src/game/managers/applicationManager/index.ts&#45;&gt;src/game/components/cell/index.ts</title>
<path fill="none" stroke="#000000" stroke-width="2" stroke-opacity="0.200000" d="M372.9,-396.73C417.66,-397.59 511.19,-397.5 589,-384.96 603.59,-382.61 606.36,-377.98 621,-375.96 665.91,-369.77 678.27,-368.59 723,-375.96 732.46,-377.52 742.45,-380.4 751.46,-383.5"/>
<polygon fill="#000000" fill-opacity="0.200000" stroke="#000000" stroke-width="2" stroke-opacity="0.200000" points="750.55,-385.4 756.9,-385.47 751.98,-381.45 750.55,-385.4"/>
</g>
<!-- src/game/managers/eventManager/index.ts -->
<g id="node16" class="node">
<title>src/game/managers/eventManager/index.ts</title>
<g id="a_node16"><a xlink:href="src/game/managers/eventManager/index.ts" xlink:title="index.ts">
<path fill="#ddfeff" stroke="black" d="M548.5,-284.96C548.5,-284.96 506.5,-284.96 506.5,-284.96 503.5,-284.96 500.5,-281.96 500.5,-278.96 500.5,-278.96 500.5,-272.96 500.5,-272.96 500.5,-269.96 503.5,-266.96 506.5,-266.96 506.5,-266.96 548.5,-266.96 548.5,-266.96 551.5,-266.96 554.5,-269.96 554.5,-272.96 554.5,-272.96 554.5,-278.96 554.5,-278.96 554.5,-281.96 551.5,-284.96 548.5,-284.96"/>
<text text-anchor="start" x="509" y="-273.76" font-family="Helvetica,sans-Serif" font-size="9.00">index.ts</text>
</a>
</g>
</g>
<!-- src/game/managers/applicationManager/index.ts&#45;&gt;src/game/managers/eventManager/index.ts -->
<g id="edge25" class="edge">
<title>src/game/managers/applicationManager/index.ts&#45;&gt;src/game/managers/eventManager/index.ts</title>
<path fill="none" stroke="#000000" stroke-width="2" stroke-opacity="0.200000" d="M372.77,-389.15C383.48,-385.63 395.64,-380.65 405.5,-373.96 434.27,-354.45 431,-337.88 458,-315.96 470.57,-305.76 486.05,-296.49 499.11,-289.45"/>
<polygon fill="#000000" fill-opacity="0.200000" stroke="#000000" stroke-width="2" stroke-opacity="0.200000" points="499.87,-291.42 504.2,-286.77 497.91,-287.7 499.87,-291.42"/>
</g>
<!-- src/game/managers/entityManager/index.ts -->
<g id="node18" class="node">
<title>src/game/managers/entityManager/index.ts</title>
<g id="a_node18"><a xlink:href="src/game/managers/entityManager/index.ts" xlink:title="index.ts">
<path fill="#ddfeff" stroke="black" d="M548.5,-224.96C548.5,-224.96 506.5,-224.96 506.5,-224.96 503.5,-224.96 500.5,-221.96 500.5,-218.96 500.5,-218.96 500.5,-212.96 500.5,-212.96 500.5,-209.96 503.5,-206.96 506.5,-206.96 506.5,-206.96 548.5,-206.96 548.5,-206.96 551.5,-206.96 554.5,-209.96 554.5,-212.96 554.5,-212.96 554.5,-218.96 554.5,-218.96 554.5,-221.96 551.5,-224.96 548.5,-224.96"/>
<text text-anchor="start" x="509" y="-213.76" font-family="Helvetica,sans-Serif" font-size="9.00">index.ts</text>
</a>
</g>
</g>
<!-- src/game/managers/applicationManager/index.ts&#45;&gt;src/game/managers/entityManager/index.ts -->
<g id="edge24" class="edge">
<title>src/game/managers/applicationManager/index.ts&#45;&gt;src/game/managers/entityManager/index.ts</title>
<path fill="none" stroke="#000000" stroke-width="2" stroke-opacity="0.200000" d="M372.74,-390.96C383.95,-387.7 396.5,-382.42 405.5,-373.96 447.32,-334.65 419.7,-298.72 458,-255.96 468.02,-244.77 481.95,-235.85 494.62,-229.31"/>
<polygon fill="#000000" fill-opacity="0.200000" stroke="#000000" stroke-width="2" stroke-opacity="0.200000" points="495.53,-231.2 500,-226.67 493.69,-227.42 495.53,-231.2"/>
</g>
<!-- src/game/managers/queryMap/index.ts -->
<g id="node19" class="node">
<title>src/game/managers/queryMap/index.ts</title>
<g id="a_node19"><a xlink:href="src/game/managers/queryMap/index.ts" xlink:title="index.ts">
<path fill="#ddfeff" stroke="black" d="M548.5,-344.96C548.5,-344.96 506.5,-344.96 506.5,-344.96 503.5,-344.96 500.5,-341.96 500.5,-338.96 500.5,-338.96 500.5,-332.96 500.5,-332.96 500.5,-329.96 503.5,-326.96 506.5,-326.96 506.5,-326.96 548.5,-326.96 548.5,-326.96 551.5,-326.96 554.5,-329.96 554.5,-332.96 554.5,-332.96 554.5,-338.96 554.5,-338.96 554.5,-341.96 551.5,-344.96 548.5,-344.96"/>
<text text-anchor="start" x="509" y="-333.76" font-family="Helvetica,sans-Serif" font-size="9.00">index.ts</text>
</a>
</g>
</g>
<!-- src/game/managers/applicationManager/index.ts&#45;&gt;src/game/managers/queryMap/index.ts -->
<g id="edge26" class="edge">
<title>src/game/managers/applicationManager/index.ts&#45;&gt;src/game/managers/queryMap/index.ts</title>
<path fill="none" stroke="#000000" stroke-width="2" stroke-opacity="0.200000" d="M372.67,-387.24C404.04,-376.78 456.73,-359.22 491.56,-347.61"/>
<polygon fill="#000000" fill-opacity="0.200000" stroke="#000000" stroke-width="2" stroke-opacity="0.200000" points="492.1,-349.64 497.13,-345.75 490.77,-345.66 492.1,-349.64"/>
</g>
<!-- src/game/types/index.ts -->
<g id="node13" class="node">
<title>src/game/types/index.ts</title>
<g id="a_node13"><a xlink:href="src/game/types/index.ts" xlink:title="index.ts">
<path fill="#ddfeff" stroke="black" d="M891,-447.96C891,-447.96 849,-447.96 849,-447.96 846,-447.96 843,-444.96 843,-441.96 843,-441.96 843,-435.96 843,-435.96 843,-432.96 846,-429.96 849,-429.96 849,-429.96 891,-429.96 891,-429.96 894,-429.96 897,-432.96 897,-435.96 897,-435.96 897,-441.96 897,-441.96 897,-444.96 894,-447.96 891,-447.96"/>
<text text-anchor="start" x="851.5" y="-436.76" font-family="Helvetica,sans-Serif" font-size="9.00">index.ts</text>
</a>
</g>
</g>
<!-- src/shared/constants.ts&#45;&gt;src/game/types/index.ts -->
<g id="edge59" class="edge">
<title>src/shared/constants.ts&#45;&gt;src/game/types/index.ts</title>
<path fill="none" stroke="#000000" stroke-width="2" stroke-opacity="0.200000" d="M787.23,-678.51C799.88,-641.45 846.19,-505.79 862.92,-456.78"/>
<polygon fill="#000000" fill-opacity="0.200000" stroke="#000000" stroke-width="2" stroke-opacity="0.200000" points="864.84,-457.65 864.79,-451.29 860.86,-456.29 864.84,-457.65"/>
</g>
<!-- src/containers/cellGraphic.ts -->
<g id="node8" class="node">
<title>src/containers/cellGraphic.ts</title>
<g id="a_node8"><a xlink:href="src/containers/cellGraphic.ts" xlink:title="cellGraphic.ts">
<path fill="#ddfeff" stroke="black" d="M709,-576.96C709,-576.96 643,-576.96 643,-576.96 640,-576.96 637,-573.96 637,-570.96 637,-570.96 637,-564.96 637,-564.96 637,-561.96 640,-558.96 643,-558.96 643,-558.96 709,-558.96 709,-558.96 712,-558.96 715,-561.96 715,-564.96 715,-564.96 715,-570.96 715,-570.96 715,-573.96 712,-576.96 709,-576.96"/>
<text text-anchor="start" x="645" y="-565.76" font-family="Helvetica,sans-Serif" font-size="9.00">cellGraphic.ts</text>
</a>
</g>
</g>
<!-- src/containers/cellGraphic.ts&#45;&gt;src/game/components/cell/index.ts -->
<g id="edge7" class="edge">
<title>src/containers/cellGraphic.ts&#45;&gt;src/game/components/cell/index.ts</title>
<path fill="none" stroke="#000000" stroke-width="2" stroke-opacity="0.200000" d="M691.52,-558.52C701.77,-551.11 715.06,-539.91 723,-526.96 744.87,-491.31 727.38,-472.9 747,-435.96 751.74,-427.04 758.83,-418.43 765.39,-411.5"/>
<polygon fill="#000000" fill-opacity="0.200000" stroke="#000000" stroke-width="2" stroke-opacity="0.200000" points="766.8,-413.07 769.53,-407.33 763.82,-410.11 766.8,-413.07"/>
</g>
<!-- src/game/components/cell/index.ts&#45;&gt;src/shared/functors/vec2/index.ts -->
<g id="edge11" class="edge">
<title>src/game/components/cell/index.ts&#45;&gt;src/shared/functors/vec2/index.ts</title>
<path fill="none" stroke="#000000" stroke-width="2" stroke-opacity="0.200000" d="M770.75,-405.21C762.62,-412.61 752.2,-423.74 747,-435.96 722.48,-493.64 762.91,-668.64 723,-716.96 720.04,-720.55 716.17,-723.19 711.93,-725.13"/>
<polygon fill="#000000" fill-opacity="0.200000" stroke="#000000" stroke-width="2" stroke-opacity="0.200000" points="711.31,-723.12 706.32,-727.06 712.68,-727.09 711.31,-723.12"/>
</g>
<!-- src/game/components/cell/index.ts&#45;&gt;src/game/types/index.ts -->
<g id="edge12" class="edge">
<title>src/game/components/cell/index.ts&#45;&gt;src/game/types/index.ts</title>
<path fill="none" stroke="#000000" stroke-width="2" stroke-opacity="0.200000" d="M802.44,-405.29C814.17,-411.23 829.54,-419 842.55,-425.58"/>
<polygon fill="#000000" fill-opacity="0.200000" stroke="#000000" stroke-width="2" stroke-opacity="0.200000" points="841.3,-427.3 847.6,-428.14 843.19,-423.55 841.3,-427.3"/>
</g>
<!-- src/containers/gridContainer.ts -->
<g id="node10" class="node">
<title>src/containers/gridContainer.ts</title>
<g id="a_node10"><a xlink:href="src/containers/gridContainer.ts" xlink:title="gridContainer.ts">
<path fill="#ddfeff" stroke="black" d="M566,-606.96C566,-606.96 489,-606.96 489,-606.96 486,-606.96 483,-603.96 483,-600.96 483,-600.96 483,-594.96 483,-594.96 483,-591.96 486,-588.96 489,-588.96 489,-588.96 566,-588.96 566,-588.96 569,-588.96 572,-591.96 572,-594.96 572,-594.96 572,-600.96 572,-600.96 572,-603.96 569,-606.96 566,-606.96"/>
<text text-anchor="start" x="491" y="-595.76" font-family="Helvetica,sans-Serif" font-size="9.00">gridContainer.ts</text>
</a>
</g>
</g>
<!-- src/containers/gridContainer.ts&#45;&gt;src/game/components/grid/index.ts -->
<g id="edge9" class="edge">
<title>src/containers/gridContainer.ts&#45;&gt;src/game/components/grid/index.ts</title>
<path fill="none" stroke="#000000" stroke-width="2" stroke-opacity="0.200000" d="M572.3,-591.96C578.32,-589.8 584.1,-586.89 589,-582.96 613.83,-563.09 603.41,-545.46 621,-518.96 632.46,-501.71 648.08,-483.96 659.57,-471.72"/>
<polygon fill="#000000" fill-opacity="0.200000" stroke="#000000" stroke-width="2" stroke-opacity="0.200000" points="661.09,-473.17 663.71,-467.38 658.05,-470.27 661.09,-473.17"/>
</g>
<!-- src/containers/gridContainer.ts&#45;&gt;src/containers/cellGraphic.ts -->
<g id="edge10" class="edge">
<title>src/containers/gridContainer.ts&#45;&gt;src/containers/cellGraphic.ts</title>
<path fill="none" stroke="#000000" stroke-width="2" stroke-opacity="0.200000" d="M572.45,-588.96C589.98,-585.37 610.19,-581.23 628.01,-577.59"/>
<polygon fill="#000000" fill-opacity="0.200000" stroke="#000000" stroke-width="2" stroke-opacity="0.200000" points="628.12,-579.71 633.58,-576.45 627.28,-575.59 628.12,-579.71"/>
</g>
<!-- src/containers/gridContainer.ts&#45;&gt;src/game/components/cell/index.ts -->
<g id="edge8" class="edge">
<title>src/containers/gridContainer.ts&#45;&gt;src/game/components/cell/index.ts</title>
<path fill="none" stroke="#000000" stroke-width="2" stroke-opacity="0.200000" d="M572.47,-589.9C578.21,-588.04 583.87,-585.76 589,-582.96 606.13,-573.65 605.35,-564.59 621,-552.96 663.04,-521.74 688.49,-533.36 723,-493.96 741.38,-472.98 732.29,-459.66 747,-435.96 752.33,-427.38 759.5,-418.82 765.97,-411.84"/>
<polygon fill="#000000" fill-opacity="0.200000" stroke="#000000" stroke-width="2" stroke-opacity="0.200000" points="767.37,-413.4 770.01,-407.62 764.34,-410.5 767.37,-413.4"/>
</g>
<!-- src/containers/loading&#45;bar&#45;container.ts -->
<g id="node11" class="node">
<title>src/containers/loading&#45;bar&#45;container.ts</title>
<g id="a_node11"><a xlink:href="src/containers/loading-bar-container.ts" xlink:title="loading&#45;bar&#45;container.ts">
<path fill="#ddfeff" stroke="black" d="M583,-636.96C583,-636.96 472,-636.96 472,-636.96 469,-636.96 466,-633.96 466,-630.96 466,-630.96 466,-624.96 466,-624.96 466,-621.96 469,-618.96 472,-618.96 472,-618.96 583,-618.96 583,-618.96 586,-618.96 589,-621.96 589,-624.96 589,-624.96 589,-630.96 589,-630.96 589,-633.96 586,-636.96 583,-636.96"/>
<text text-anchor="start" x="474" y="-625.76" font-family="Helvetica,sans-Serif" font-size="9.00">loading&#45;bar&#45;container.ts</text>
</a>
</g>
</g>
<!-- src/shared/functors/colorChoose/index.ts&#45;&gt;src/shared/constants.ts -->
<g id="edge62" class="edge">
<title>src/shared/functors/colorChoose/index.ts&#45;&gt;src/shared/constants.ts</title>
<path fill="none" stroke="#000000" stroke-width="2" stroke-opacity="0.200000" d="M703.48,-841.26C710.51,-837.96 717.62,-833.6 723,-827.96 756.69,-792.64 772.51,-735.22 778.68,-706.11"/>
<polygon fill="#000000" fill-opacity="0.200000" stroke="#000000" stroke-width="2" stroke-opacity="0.200000" points="780.71,-706.66 779.83,-700.37 776.59,-705.84 780.71,-706.66"/>
</g>
<!-- src/game/entity/index.ts -->
<g id="node15" class="node">
<title>src/game/entity/index.ts</title>
<g id="a_node15"><a xlink:href="src/game/entity/index.ts" xlink:title="index.ts">
<path fill="#ddfeff" stroke="black" d="M366.5,-156.96C366.5,-156.96 324.5,-156.96 324.5,-156.96 321.5,-156.96 318.5,-153.96 318.5,-150.96 318.5,-150.96 318.5,-144.96 318.5,-144.96 318.5,-141.96 321.5,-138.96 324.5,-138.96 324.5,-138.96 366.5,-138.96 366.5,-138.96 369.5,-138.96 372.5,-141.96 372.5,-144.96 372.5,-144.96 372.5,-150.96 372.5,-150.96 372.5,-153.96 369.5,-156.96 366.5,-156.96"/>
<text text-anchor="start" x="327" y="-145.76" font-family="Helvetica,sans-Serif" font-size="9.00">index.ts</text>
</a>
</g>
</g>
<!-- src/game/entity/index.ts&#45;&gt;src/game/interfaces/index.ts -->
<g id="edge18" class="edge">
<title>src/game/entity/index.ts&#45;&gt;src/game/interfaces/index.ts</title>
<path fill="none" stroke="#000000" stroke-width="2" stroke-opacity="0.200000" d="M372.79,-148.52C419.01,-150.48 516.77,-159.06 589,-195.96 619.62,-211.61 647.21,-241.35 662.48,-259.83"/>
<polygon fill="#000000" fill-opacity="0.200000" stroke="#000000" stroke-width="2" stroke-opacity="0.200000" points="660.59,-260.83 665.99,-264.18 663.86,-258.19 660.59,-260.83"/>
</g>
<!-- src/game/entity/index.ts&#45;&gt;src/game/managers/eventManager/index.ts -->
<g id="edge19" class="edge">
<title>src/game/entity/index.ts&#45;&gt;src/game/managers/eventManager/index.ts</title>
<path fill="none" stroke="#000000" stroke-width="2" stroke-opacity="0.200000" d="M359.16,-157.37C371.44,-166.69 390.36,-181.6 405.5,-195.96 430.73,-219.89 428.78,-235.11 458,-253.96 468.12,-260.49 480.33,-265.22 491.63,-268.59"/>
<polygon fill="#000000" fill-opacity="0.200000" stroke="#000000" stroke-width="2" stroke-opacity="0.200000" points="490.78,-270.53 497.12,-270.1 491.89,-266.48 490.78,-270.53"/>
</g>
<!-- src/game/managers/idManager/index.ts -->
<g id="node17" class="node">
<title>src/game/managers/idManager/index.ts</title>
<g id="a_node17"><a xlink:href="src/game/managers/idManager/index.ts" xlink:title="index.ts">
<path fill="#ddfeff" stroke="black" d="M366.5,-344.96C366.5,-344.96 324.5,-344.96 324.5,-344.96 321.5,-344.96 318.5,-341.96 318.5,-338.96 318.5,-338.96 318.5,-332.96 318.5,-332.96 318.5,-329.96 321.5,-326.96 324.5,-326.96 324.5,-326.96 366.5,-326.96 366.5,-326.96 369.5,-326.96 372.5,-329.96 372.5,-332.96 372.5,-332.96 372.5,-338.96 372.5,-338.96 372.5,-341.96 369.5,-344.96 366.5,-344.96"/>
<text text-anchor="start" x="327" y="-333.76" font-family="Helvetica,sans-Serif" font-size="9.00">index.ts</text>
</a>
</g>
</g>
<!-- src/game/entity/index.ts&#45;&gt;src/game/managers/idManager/index.ts -->
<g id="edge20" class="edge">
<title>src/game/entity/index.ts&#45;&gt;src/game/managers/idManager/index.ts</title>
<path fill="none" stroke="#000000" stroke-width="2" stroke-opacity="0.200000" d="M318.03,-156.72C297.51,-164.87 270.91,-179.24 258.25,-201.96 235.32,-243.12 230.49,-269.9 258.25,-307.96 269.93,-323.98 290.91,-331.04 309.37,-334.06"/>
<polygon fill="#000000" fill-opacity="0.200000" stroke="#000000" stroke-width="2" stroke-opacity="0.200000" points="308.95,-336.13 315.18,-334.84 309.51,-331.96 308.95,-336.13"/>
</g>
<!-- src/game/managers/eventManager/index.ts&#45;&gt;src/game/interfaces/index.ts -->
<g id="edge31" class="edge">
<title>src/game/managers/eventManager/index.ts&#45;&gt;src/game/interfaces/index.ts</title>
<path fill="none" stroke="#000000" stroke-width="2" stroke-opacity="0.200000" d="M554.69,-275.96C578.4,-275.96 613.51,-275.96 639.69,-275.96"/>
<polygon fill="#000000" fill-opacity="0.200000" stroke="#000000" stroke-width="2" stroke-opacity="0.200000" points="639.51,-278.06 645.51,-275.96 639.51,-273.86 639.51,-278.06"/>
</g>
<!-- src/game/managers/entityManager/index.ts&#45;&gt;src/game/interfaces/index.ts -->
<g id="edge30" class="edge">
<title>src/game/managers/entityManager/index.ts&#45;&gt;src/game/interfaces/index.ts</title>
<path fill="none" stroke="#000000" stroke-width="2" stroke-opacity="0.200000" d="M551.39,-225.34C576.33,-235.55 616.37,-251.95 644.09,-263.31"/>
<polygon fill="#000000" fill-opacity="0.200000" stroke="#000000" stroke-width="2" stroke-opacity="0.200000" points="643.12,-265.18 649.47,-265.51 644.71,-261.29 643.12,-265.18"/>
</g>
<!-- src/game/managers/entityManager/index.ts&#45;&gt;src/game/entity/index.ts -->
<g id="edge29" class="edge">
<title>src/game/managers/entityManager/index.ts&#45;&gt;src/game/entity/index.ts</title>
<path fill="none" stroke="#000000" stroke-width="2" stroke-opacity="0.200000" d="M501.39,-206.48C469.61,-194.47 414.76,-173.75 379.59,-160.46"/>
<polygon fill="#000000" fill-opacity="0.200000" stroke="#000000" stroke-width="2" stroke-opacity="0.200000" points="380.71,-158.64 374.36,-158.49 379.23,-162.57 380.71,-158.64"/>
</g>
<!-- src/game/managers/queryMap/index.ts&#45;&gt;src/game/interfaces/index.ts -->
<g id="edge32" class="edge">
<title>src/game/managers/queryMap/index.ts&#45;&gt;src/game/interfaces/index.ts</title>
<path fill="none" stroke="#000000" stroke-width="2" stroke-opacity="0.200000" d="M554.85,-326.82C565.52,-323 577.91,-318.43 589,-313.96 608.52,-306.11 630.19,-296.53 646.89,-288.96"/>
<polygon fill="#000000" fill-opacity="0.200000" stroke="#000000" stroke-width="2" stroke-opacity="0.200000" points="647.32,-291.07 651.91,-286.67 645.58,-287.25 647.32,-291.07"/>
</g>
<!-- src/game/managers/containersManager/index.ts -->
<g id="node20" class="node">
<title>src/game/managers/containersManager/index.ts</title>
<g id="a_node20"><a xlink:href="src/game/managers/containersManager/index.ts" xlink:title="index.ts">
<path fill="#ddfeff" stroke="black" d="M366.5,-464.96C366.5,-464.96 324.5,-464.96 324.5,-464.96 321.5,-464.96 318.5,-461.96 318.5,-458.96 318.5,-458.96 318.5,-452.96 318.5,-452.96 318.5,-449.96 321.5,-446.96 324.5,-446.96 324.5,-446.96 366.5,-446.96 366.5,-446.96 369.5,-446.96 372.5,-449.96 372.5,-452.96 372.5,-452.96 372.5,-458.96 372.5,-458.96 372.5,-461.96 369.5,-464.96 366.5,-464.96"/>
<text text-anchor="start" x="327" y="-453.76" font-family="Helvetica,sans-Serif" font-size="9.00">index.ts</text>
</a>
</g>
</g>
<!-- src/game/managers/containersManager/index.ts&#45;&gt;src/containers/gridContainer.ts -->
<g id="edge27" class="edge">
<title>src/game/managers/containersManager/index.ts&#45;&gt;src/containers/gridContainer.ts</title>
<path fill="none" stroke="#000000" stroke-width="2" stroke-opacity="0.200000" d="M351.84,-465.44C365.86,-489.35 406.19,-552.4 458,-582.96 463,-585.91 468.52,-588.29 474.18,-590.19"/>
<polygon fill="#000000" fill-opacity="0.200000" stroke="#000000" stroke-width="2" stroke-opacity="0.200000" points="473.3,-592.12 479.65,-591.81 474.49,-588.09 473.3,-592.12"/>
</g>
<!-- src/shared/functors/drawGrid/index.ts -->
<g id="node21" class="node">
<title>src/shared/functors/drawGrid/index.ts</title>
<g id="a_node21"><a xlink:href="src/shared/functors/drawGrid/index.ts" xlink:title="index.ts">
<path fill="#ddfeff" stroke="black" d="M697,-798.96C697,-798.96 655,-798.96 655,-798.96 652,-798.96 649,-795.96 649,-792.96 649,-792.96 649,-786.96 649,-786.96 649,-783.96 652,-780.96 655,-780.96 655,-780.96 697,-780.96 697,-780.96 700,-780.96 703,-783.96 703,-786.96 703,-786.96 703,-792.96 703,-792.96 703,-795.96 700,-798.96 697,-798.96"/>
<text text-anchor="start" x="657.5" y="-787.76" font-family="Helvetica,sans-Serif" font-size="9.00">index.ts</text>
</a>
</g>
</g>
<!-- src/game/managers/containersManager/index.ts&#45;&gt;src/shared/functors/drawGrid/index.ts -->
<g id="edge28" class="edge">
<title>src/game/managers/containersManager/index.ts&#45;&gt;src/shared/functors/drawGrid/index.ts</title>
<path fill="none" stroke="#000000" stroke-width="2" stroke-opacity="0.200000" d="M348.99,-465.34C358.05,-497.67 392.16,-605.84 458,-665.96 504.63,-708.55 540.11,-681 589,-720.96 608.57,-736.96 601.35,-752.07 621,-767.96 626.77,-772.63 633.67,-776.43 640.57,-779.47"/>
<polygon fill="#000000" fill-opacity="0.200000" stroke="#000000" stroke-width="2" stroke-opacity="0.200000" points="639.44,-781.28 645.8,-781.58 641.01,-777.39 639.44,-781.28"/>
</g>
<!-- src/shared/functors/drawGrid/index.ts&#45;&gt;src/containers/gridContainer.ts -->
<g id="edge63" class="edge">
<title>src/shared/functors/drawGrid/index.ts&#45;&gt;src/containers/gridContainer.ts</title>
<path fill="none" stroke="#000000" stroke-width="2" stroke-opacity="0.200000" d="M648.73,-784.83C638.69,-781.6 627.99,-776.37 621,-767.96 576.02,-713.88 637.75,-663.67 589,-612.96 586.5,-610.36 583.62,-608.18 580.51,-606.36"/>
<polygon fill="#000000" fill-opacity="0.200000" stroke="#000000" stroke-width="2" stroke-opacity="0.200000" points="581.43,-604.47 575.11,-603.82 579.64,-608.27 581.43,-604.47"/>
</g>
<!-- src/game/managers/queries/index.ts -->
<g id="node22" class="node">
<title>src/game/managers/queries/index.ts</title>
<g id="a_node22"><a xlink:href="src/game/managers/queries/index.ts" xlink:title="no&#45;orphans">
<path fill="#ccffcc" stroke="orange" d="M366.5,-284.96C366.5,-284.96 324.5,-284.96 324.5,-284.96 321.5,-284.96 318.5,-281.96 318.5,-278.96 318.5,-278.96 318.5,-272.96 318.5,-272.96 318.5,-269.96 321.5,-266.96 324.5,-266.96 324.5,-266.96 366.5,-266.96 366.5,-266.96 369.5,-266.96 372.5,-269.96 372.5,-272.96 372.5,-272.96 372.5,-278.96 372.5,-278.96 372.5,-281.96 369.5,-284.96 366.5,-284.96"/>
<text text-anchor="start" x="327" y="-273.76" font-family="Helvetica,sans-Serif" font-size="9.00" fill="orange">index.ts</text>
</a>
</g>
</g>
<!-- src/game/managers/sceneManager/scene&#45;manager.ts -->
<g id="node23" class="node">
<title>src/game/managers/sceneManager/scene&#45;manager.ts</title>
<g id="a_node23"><a xlink:href="src/game/managers/sceneManager/scene-manager.ts" xlink:title="scene&#45;manager.ts">
<path fill="#ddfeff" stroke="black" d="M388,-224.96C388,-224.96 303,-224.96 303,-224.96 300,-224.96 297,-221.96 297,-218.96 297,-218.96 297,-212.96 297,-212.96 297,-209.96 300,-206.96 303,-206.96 303,-206.96 388,-206.96 388,-206.96 391,-206.96 394,-209.96 394,-212.96 394,-212.96 394,-218.96 394,-218.96 394,-221.96 391,-224.96 388,-224.96"/>
<text text-anchor="start" x="305" y="-213.76" font-family="Helvetica,sans-Serif" font-size="9.00">scene&#45;manager.ts</text>
</a>
</g>
</g>
<!-- src/game/systems/index.ts -->
<g id="node24" class="node">
<title>src/game/systems/index.ts</title>
<g id="a_node24"><a xlink:href="src/game/systems/index.ts" xlink:title="index.ts">
<path fill="#ddfeff" stroke="black" d="M217,-477.96C217,-477.96 175,-477.96 175,-477.96 172,-477.96 169,-474.96 169,-471.96 169,-471.96 169,-465.96 169,-465.96 169,-462.96 172,-459.96 175,-459.96 175,-459.96 217,-459.96 217,-459.96 220,-459.96 223,-462.96 223,-465.96 223,-465.96 223,-471.96 223,-471.96 223,-474.96 220,-477.96 217,-477.96"/>
<text text-anchor="start" x="177.5" y="-466.76" font-family="Helvetica,sans-Serif" font-size="9.00">index.ts</text>
</a>
</g>
</g>
<!-- src/game/systems/index.ts&#45;&gt;src/containers/button.ts -->
<g id="edge33" class="edge">
<title>src/game/systems/index.ts&#45;&gt;src/containers/button.ts</title>
<path fill="none" stroke="#000000" stroke-width="2" stroke-opacity="0.200000" d="M223.41,-477.12C239.36,-482.03 260.08,-488.39 278.5,-493.96 353.2,-516.56 440.7,-542.56 489.24,-556.94"/>
<polygon fill="#000000" fill-opacity="0.200000" stroke="#000000" stroke-width="2" stroke-opacity="0.200000" points="488.59,-558.94 494.94,-558.63 489.78,-554.91 488.59,-558.94"/>
</g>
<!-- src/game/systems/index.ts&#45;&gt;src/game/interfaces/index.ts -->
<g id="edge39" class="edge">
<title>src/game/systems/index.ts&#45;&gt;src/game/interfaces/index.ts</title>
<path fill="none" stroke="#000000" stroke-width="2" stroke-opacity="0.200000" d="M223.08,-465.49C228.75,-463.55 234.18,-460.56 238,-455.96 331.87,-342.99 168.46,-225.25 278.5,-127.96 316.72,-94.18 578.01,-147.24 589,-153.96 629.72,-178.86 656.36,-231.08 668.11,-258.42"/>
<polygon fill="#000000" fill-opacity="0.200000" stroke="#000000" stroke-width="2" stroke-opacity="0.200000" points="666.13,-259.13 670.36,-263.87 670.01,-257.52 666.13,-259.13"/>
</g>
<!-- src/game/systems/index.ts&#45;&gt;src/shared/constants.ts -->
<g id="edge35" class="edge">
<title>src/game/systems/index.ts&#45;&gt;src/shared/constants.ts</title>
<path fill="none" stroke="#000000" stroke-width="2" stroke-opacity="0.200000" d="M199.14,-478.31C206.42,-508.81 232.39,-607.37 278.5,-675.96 395.91,-850.63 425.64,-924.68 621,-1002.96 663.08,-1019.83 688.12,-1031.92 723,-1002.96 769.13,-964.67 779.4,-767.63 781.5,-706.24"/>
<polygon fill="#000000" fill-opacity="0.200000" stroke="#000000" stroke-width="2" stroke-opacity="0.200000" points="783.6,-706.39 781.69,-700.33 779.4,-706.26 783.6,-706.39"/>
</g>
<!-- src/game/systems/index.ts&#45;&gt;src/game/components/cell/index.ts -->
<g id="edge38" class="edge">
<title>src/game/systems/index.ts&#45;&gt;src/game/components/cell/index.ts</title>
<path fill="none" stroke="#000000" stroke-width="2" stroke-opacity="0.200000" d="M223.09,-465.51C228.76,-463.56 234.19,-460.57 238,-455.96 286.89,-396.8 221.13,-163.95 278.5,-112.96 303.12,-91.08 562.1,-112.96 589,-124.96 665.06,-158.9 676.13,-187.12 723,-255.96 750.21,-295.92 768.7,-350.42 777.01,-378.16"/>
<polygon fill="#000000" fill-opacity="0.200000" stroke="#000000" stroke-width="2" stroke-opacity="0.200000" points="774.89,-378.41 778.59,-383.58 778.92,-377.23 774.89,-378.41"/>
</g>
<!-- src/game/systems/index.ts&#45;&gt;src/containers/gridContainer.ts -->
<g id="edge34" class="edge">
<title>src/game/systems/index.ts&#45;&gt;src/containers/gridContainer.ts</title>
<path fill="none" stroke="#000000" stroke-width="2" stroke-opacity="0.200000" d="M211.62,-478.39C227.63,-488.47 254.27,-504.55 278.5,-515.96 355.54,-552.25 376.31,-558.91 458,-582.96 463.21,-584.5 468.69,-585.95 474.18,-587.31"/>
<polygon fill="#000000" fill-opacity="0.200000" stroke="#000000" stroke-width="2" stroke-opacity="0.200000" points="473.51,-589.31 479.84,-588.66 474.49,-585.23 473.51,-589.31"/>
</g>
<!-- src/game/systems/index.ts&#45;&gt;src/game/managers/containersManager/index.ts -->
<g id="edge40" class="edge">
<title>src/game/systems/index.ts&#45;&gt;src/game/managers/containersManager/index.ts</title>
<path fill="none" stroke="#000000" stroke-width="2" stroke-opacity="0.200000" d="M223.37,-466.64C247.39,-464.52 283.03,-461.38 309.44,-459.05"/>
<polygon fill="#000000" fill-opacity="0.200000" stroke="#000000" stroke-width="2" stroke-opacity="0.200000" points="309.55,-461.15 315.34,-458.53 309.18,-456.97 309.55,-461.15"/>
</g>
<!-- src/game/systems/index.ts&#45;&gt;src/shared/functors/drawGrid/index.ts -->
<g id="edge37" class="edge">
<title>src/game/systems/index.ts&#45;&gt;src/shared/functors/drawGrid/index.ts</title>
<path fill="none" stroke="#000000" stroke-width="2" stroke-opacity="0.200000" d="M206.65,-478.24C221.76,-492.71 252.04,-521.44 278.5,-544.96 356.64,-614.41 367.11,-645.31 458,-696.96 511.52,-727.38 535.17,-712.09 589,-741.96 605.02,-750.85 605.23,-758.63 621,-767.96 627.06,-771.55 633.82,-774.82 640.45,-777.67"/>
<polygon fill="#000000" fill-opacity="0.200000" stroke="#000000" stroke-width="2" stroke-opacity="0.200000" points="639.56,-779.57 645.91,-779.9 641.15,-775.69 639.56,-779.57"/>
</g>
<!-- src/game/systems/index.ts&#45;&gt;src/game/managers/sceneManager/scene&#45;manager.ts -->
<g id="edge41" class="edge">
<title>src/game/systems/index.ts&#45;&gt;src/game/managers/sceneManager/scene&#45;manager.ts</title>
<path fill="none" stroke="#000000" stroke-width="2" stroke-opacity="0.200000" d="M223.26,-465.13C228.78,-463.2 234.11,-460.3 238,-455.96 298.6,-388.49 226.33,-330.15 278.5,-255.96 286.59,-244.46 299.15,-235.66 311.15,-229.28"/>
<polygon fill="#000000" fill-opacity="0.200000" stroke="#000000" stroke-width="2" stroke-opacity="0.200000" points="311.74,-231.33 316.19,-226.79 309.88,-227.57 311.74,-231.33"/>
</g>
<!-- src/shared/functors/DFSearch/index.ts -->
<g id="node25" class="node">
<title>src/shared/functors/DFSearch/index.ts</title>
<g id="a_node25"><a xlink:href="src/shared/functors/DFSearch/index.ts" xlink:title="index.ts">
<path fill="#ddfeff" stroke="black" d="M697,-918.96C697,-918.96 655,-918.96 655,-918.96 652,-918.96 649,-915.96 649,-912.96 649,-912.96 649,-906.96 649,-906.96 649,-903.96 652,-900.96 655,-900.96 655,-900.96 697,-900.96 697,-900.96 700,-900.96 703,-903.96 703,-906.96 703,-906.96 703,-912.96 703,-912.96 703,-915.96 700,-918.96 697,-918.96"/>
<text text-anchor="start" x="657.5" y="-907.76" font-family="Helvetica,sans-Serif" font-size="9.00">index.ts</text>
</a>
</g>
</g>
<!-- src/game/systems/index.ts&#45;&gt;src/shared/functors/DFSearch/index.ts -->
<g id="edge36" class="edge">
<title>src/game/systems/index.ts&#45;&gt;src/shared/functors/DFSearch/index.ts</title>
<path fill="none" stroke="#000000" stroke-width="2" stroke-opacity="0.200000" d="M201.15,-478.4C211.74,-501.82 241.56,-563.87 278.5,-606.96 406.63,-756.46 451.81,-787.24 621,-887.96 627.05,-891.57 633.81,-894.84 640.44,-897.69"/>
<polygon fill="#000000" fill-opacity="0.200000" stroke="#000000" stroke-width="2" stroke-opacity="0.200000" points="639.55,-899.6 645.9,-899.93 641.14,-895.71 639.55,-899.6"/>
</g>
<!-- src/shared/functors/DFSearch/index.ts&#45;&gt;src/shared/constants.ts -->
<g id="edge61" class="edge">
<title>src/shared/functors/DFSearch/index.ts&#45;&gt;src/shared/constants.ts</title>
<path fill="none" stroke="#000000" stroke-width="2" stroke-opacity="0.200000" d="M703.42,-901.86C710.61,-898.55 717.83,-894.03 723,-887.96 769.34,-833.58 779.3,-744.18 781.43,-706.08"/>
<polygon fill="#000000" fill-opacity="0.200000" stroke="#000000" stroke-width="2" stroke-opacity="0.200000" points="783.52,-706.26 781.69,-700.18 779.32,-706.07 783.52,-706.26"/>
</g>
<!-- src/shared/functors/DFSearch/index.ts&#45;&gt;src/game/components/cell/index.ts -->
<g id="edge60" class="edge">
<title>src/shared/functors/DFSearch/index.ts&#45;&gt;src/game/components/cell/index.ts</title>
<path fill="none" stroke="#000000" stroke-width="2" stroke-opacity="0.200000" d="M703.4,-903C710.95,-899.69 718.38,-894.88 723,-887.96 778.87,-804.32 709.14,-529.15 747,-435.96 750.75,-426.73 757.57,-418.17 764.19,-411.36"/>
<polygon fill="#000000" fill-opacity="0.200000" stroke="#000000" stroke-width="2" stroke-opacity="0.200000" points="765.58,-412.93 768.45,-407.26 762.67,-409.9 765.58,-412.93"/>
</g>
<!-- src/index.ts -->
<g id="node26" class="node">
<title>src/index.ts</title>
<g id="a_node26"><a xlink:href="src/index.ts" xlink:title="index.ts">
<path fill="#ddfeff" stroke="black" d="M131.5,-91.96C131.5,-91.96 89.5,-91.96 89.5,-91.96 86.5,-91.96 83.5,-88.96 83.5,-85.96 83.5,-85.96 83.5,-79.96 83.5,-79.96 83.5,-76.96 86.5,-73.96 89.5,-73.96 89.5,-73.96 131.5,-73.96 131.5,-73.96 134.5,-73.96 137.5,-76.96 137.5,-79.96 137.5,-79.96 137.5,-85.96 137.5,-85.96 137.5,-88.96 134.5,-91.96 131.5,-91.96"/>
<text text-anchor="start" x="92" y="-80.76" font-family="Helvetica,sans-Serif" font-size="9.00">index.ts</text>
</a>
</g>
</g>
<!-- src/index.ts&#45;&gt;src/containers/button.ts -->
<g id="edge42" class="edge">
<title>src/index.ts&#45;&gt;src/containers/button.ts</title>
<path fill="none" stroke="#000000" stroke-width="2" stroke-opacity="0.200000" d="M137.76,-83.28C202.5,-84.61 367.24,-91.58 405.5,-127.96 486.52,-205 427.66,-266.36 458,-373.96 476.7,-440.27 506.1,-516.78 519.47,-550.48"/>
<polygon fill="#000000" fill-opacity="0.200000" stroke="#000000" stroke-width="2" stroke-opacity="0.200000" points="517.49,-551.21 521.67,-556 521.4,-549.65 517.49,-551.21"/>
</g>
<!-- src/index.ts&#45;&gt;src/game/components/grid/index.ts -->
<g id="edge43" class="edge">
<title>src/index.ts&#45;&gt;src/game/components/grid/index.ts</title>
<path fill="none" stroke="#000000" stroke-width="2" stroke-opacity="0.200000" d="M137.86,-81.28C140.61,-81.15 143.36,-81.04 146,-80.96 186.87,-79.78 197.12,-79.99 238,-80.96 402.11,-84.88 497.9,-59.4 589,-195.96 648.23,-284.75 555.66,-349.57 621,-433.96 625.96,-440.37 633.1,-444.92 640.57,-448.15"/>
<polygon fill="#000000" fill-opacity="0.200000" stroke="#000000" stroke-width="2" stroke-opacity="0.200000" points="639.52,-450 645.87,-450.11 640.97,-446.06 639.52,-450"/>
</g>
<!-- src/index.ts&#45;&gt;src/game/components/shapes/index.ts -->
<g id="edge44" class="edge">
<title>src/index.ts&#45;&gt;src/game/components/shapes/index.ts</title>
<path fill="none" stroke="#000000" stroke-width="2" stroke-opacity="0.200000" d="M137.67,-73.7C140.45,-72.99 143.27,-72.39 146,-71.96 194.64,-64.4 551.98,-39.52 589,-71.96 629.79,-107.72 602.05,-263.14 621,-313.96 630.31,-338.94 648.4,-364.01 661.07,-379.73"/>
<polygon fill="#000000" fill-opacity="0.200000" stroke="#000000" stroke-width="2" stroke-opacity="0.200000" points="659.42,-381.03 664.86,-384.32 662.66,-378.36 659.42,-381.03"/>
</g>
<!-- src/index.ts&#45;&gt;src/game/components/vector/index.ts -->
<g id="edge45" class="edge">
<title>src/index.ts&#45;&gt;src/game/components/vector/index.ts</title>
<path fill="none" stroke="#000000" stroke-width="2" stroke-opacity="0.200000" d="M114.59,-73.49C119.23,-61.04 129.25,-39.6 146,-29.96 222.57,14.08 256.17,-19.96 344.5,-19.96 344.5,-19.96 344.5,-19.96 528.5,-19.96 615.06,-19.96 661.55,31 723,-29.96 754.92,-61.63 724.09,-395.27 747,-433.96 748.63,-436.72 750.76,-439.18 753.16,-441.37"/>
<polygon fill="#000000" fill-opacity="0.200000" stroke="#000000" stroke-width="2" stroke-opacity="0.200000" points="751.52,-442.77 757.58,-444.71 754.06,-439.42 751.52,-442.77"/>
</g>
<!-- src/index.ts&#45;&gt;src/game/interfaces/index.ts -->
<g id="edge46" class="edge">
<title>src/index.ts&#45;&gt;src/game/interfaces/index.ts</title>
<path fill="none" stroke="#000000" stroke-width="2" stroke-opacity="0.200000" d="M120.83,-73.68C127.29,-67.93 136.43,-61.07 146,-57.96 192.82,-42.78 551.61,-25.95 589,-57.96 659.05,-117.93 558.5,-195.16 621,-262.96 626.03,-268.42 632.91,-271.77 640.07,-273.78"/>
<polygon fill="#000000" fill-opacity="0.200000" stroke="#000000" stroke-width="2" stroke-opacity="0.200000" points="639.26,-275.76 645.56,-274.96 640.13,-271.65 639.26,-275.76"/>
</g>
<!-- src/index.ts&#45;&gt;src/game/managers/applicationManager/index.ts -->
<g id="edge47" class="edge">
<title>src/index.ts&#45;&gt;src/game/managers/applicationManager/index.ts</title>
<path fill="none" stroke="#000000" stroke-width="2" stroke-opacity="0.200000" d="M132.34,-92.32C134.49,-93.95 136.44,-95.83 138,-97.96 148.41,-112.27 139.83,-120.38 146,-136.96 188.07,-250.07 185.53,-297.02 278.5,-373.96 287.38,-381.32 298.82,-386.24 309.67,-389.53"/>
<polygon fill="#000000" fill-opacity="0.200000" stroke="#000000" stroke-width="2" stroke-opacity="0.200000" points="308.93,-391.51 315.27,-391.05 310.02,-387.45 308.93,-391.51"/>
</g>
<!-- src/index.ts&#45;&gt;src/shared/constants.ts -->
<g id="edge51" class="edge">
<title>src/index.ts&#45;&gt;src/shared/constants.ts</title>
<path fill="none" stroke="#000000" stroke-width="2" stroke-opacity="0.200000" d="M116.42,-73.72C122.12,-64.1 132.47,-49.53 146,-42.96 225.44,-4.38 256.19,-33.96 344.5,-33.96 344.5,-33.96 344.5,-33.96 528.5,-33.96 555.48,-33.96 566,-24.86 589,-38.96 685.63,-98.21 686.61,-148.61 723,-255.96 757.13,-356.65 732.22,-388.68 747,-493.96 756.14,-559.05 771.26,-635.66 778.25,-669.87"/>
<polygon fill="#000000" fill-opacity="0.200000" stroke="#000000" stroke-width="2" stroke-opacity="0.200000" points="776.19,-670.3 779.46,-675.75 780.31,-669.45 776.19,-670.3"/>
</g>
<!-- src/index.ts&#45;&gt;src/game/managers/sceneManager/scene&#45;manager.ts -->
<g id="edge48" class="edge">
<title>src/index.ts&#45;&gt;src/game/managers/sceneManager/scene&#45;manager.ts</title>
<path fill="none" stroke="#000000" stroke-width="2" stroke-opacity="0.200000" d="M128.39,-92.37C131.59,-94.2 134.91,-96.12 138,-97.96 201.3,-135.68 213.6,-151.09 278.5,-185.96 289.72,-191.99 302.38,-197.94 313.6,-202.94"/>
<polygon fill="#000000" fill-opacity="0.200000" stroke="#000000" stroke-width="2" stroke-opacity="0.200000" points="312.73,-204.85 319.07,-205.34 314.42,-201 312.73,-204.85"/>
</g>
<!-- src/index.ts&#45;&gt;src/game/systems/index.ts -->
<g id="edge49" class="edge">
<title>src/index.ts&#45;&gt;src/game/systems/index.ts</title>
<path fill="none" stroke="#000000" stroke-width="2" stroke-opacity="0.200000" d="M132.97,-92.27C134.95,-93.9 136.7,-95.79 138,-97.96 148.21,-115.04 133.69,-440.33 146,-455.96 149.66,-460.61 154.77,-463.71 160.32,-465.76"/>
<polygon fill="#000000" fill-opacity="0.200000" stroke="#000000" stroke-width="2" stroke-opacity="0.200000" points="159.39,-467.68 165.74,-467.26 160.51,-463.64 159.39,-467.68"/>
</g>
<!-- src/scenes/loader&#45;scene.ts -->
<g id="node27" class="node">
<title>src/scenes/loader&#45;scene.ts</title>
<g id="a_node27"><a xlink:href="src/scenes/loader-scene.ts" xlink:title="loader&#45;scene.ts">
<path fill="#ddfeff" stroke="black" d="M232,-900.96C232,-900.96 160,-900.96 160,-900.96 157,-900.96 154,-897.96 154,-894.96 154,-894.96 154,-888.96 154,-888.96 154,-885.96 157,-882.96 160,-882.96 160,-882.96 232,-882.96 232,-882.96 235,-882.96 238,-885.96 238,-888.96 238,-888.96 238,-894.96 238,-894.96 238,-897.96 235,-900.96 232,-900.96"/>
<text text-anchor="start" x="162" y="-889.76" font-family="Helvetica,sans-Serif" font-size="9.00">loader&#45;scene.ts</text>
</a>
</g>
</g>
<!-- src/index.ts&#45;&gt;src/scenes/loader&#45;scene.ts -->
<g id="edge50" class="edge">
<title>src/index.ts&#45;&gt;src/scenes/loader&#45;scene.ts</title>
<path fill="none" stroke="#000000" stroke-width="2" stroke-opacity="0.200000" d="M132.98,-92.26C134.96,-93.89 136.7,-95.78 138,-97.96 149.64,-117.48 144.34,-484.3 146,-506.96 156.4,-648.96 183.02,-818.86 191.99,-873.85"/>
<polygon fill="#000000" fill-opacity="0.200000" stroke="#000000" stroke-width="2" stroke-opacity="0.200000" points="189.87,-873.91 192.92,-879.49 194.02,-873.23 189.87,-873.91"/>
</g>
<!-- src/scenes/loader&#45;scene.ts&#45;&gt;src/containers/loading&#45;bar&#45;container.ts -->
<g id="edge55" class="edge">
<title>src/scenes/loader&#45;scene.ts&#45;&gt;src/containers/loading&#45;bar&#45;container.ts</title>
<path fill="none" stroke="#000000" stroke-width="2" stroke-opacity="0.200000" d="M218.34,-901.35C258.63,-917.5 347.09,-945.3 405.5,-906.96 497.97,-846.27 520.13,-698.07 525.13,-646.23"/>
<polygon fill="#000000" fill-opacity="0.200000" stroke="#000000" stroke-width="2" stroke-opacity="0.200000" points="527.2,-646.63 525.63,-640.47 523.02,-646.27 527.2,-646.63"/>
</g>
<!-- src/scenes/loader&#45;scene.ts&#45;&gt;src/game/managers/sceneManager/scene&#45;manager.ts -->
<g id="edge56" class="edge">
<title>src/scenes/loader&#45;scene.ts&#45;&gt;src/game/managers/sceneManager/scene&#45;manager.ts</title>
<path fill="none" stroke="#000000" stroke-width="2" stroke-opacity="0.200000" d="M197.93,-882.91C205.75,-807.37 260.48,-283.67 278.5,-255.96 286.04,-244.37 298.22,-235.63 310.08,-229.32"/>
<polygon fill="#000000" fill-opacity="0.200000" stroke="#000000" stroke-width="2" stroke-opacity="0.200000" points="311.01,-231.2 315.46,-226.67 309.15,-227.43 311.01,-231.2"/>
</g>
<!-- src/scenes/game&#45;scene.ts -->
<g id="node30" class="node">
<title>src/scenes/game&#45;scene.ts</title>
<g id="a_node30"><a xlink:href="src/scenes/game-scene.ts" xlink:title="game&#45;scene.ts">
<path fill="#ddfeff" stroke="black" d="M381,-900.96C381,-900.96 310,-900.96 310,-900.96 307,-900.96 304,-897.96 304,-894.96 304,-894.96 304,-888.96 304,-888.96 304,-885.96 307,-882.96 310,-882.96 310,-882.96 381,-882.96 381,-882.96 384,-882.96 387,-885.96 387,-888.96 387,-888.96 387,-894.96 387,-894.96 387,-897.96 384,-900.96 381,-900.96"/>
<text text-anchor="start" x="312" y="-889.76" font-family="Helvetica,sans-Serif" font-size="9.00">game&#45;scene.ts</text>
</a>
</g>
</g>
<!-- src/scenes/loader&#45;scene.ts&#45;&gt;src/scenes/game&#45;scene.ts -->
<g id="edge58" class="edge">
<title>src/scenes/loader&#45;scene.ts&#45;&gt;src/scenes/game&#45;scene.ts</title>
<path fill="none" stroke="#000000" stroke-width="2" stroke-opacity="0.200000" d="M238.48,-891.96C255.98,-891.96 276.5,-891.96 294.8,-891.96"/>
<polygon fill="#000000" fill-opacity="0.200000" stroke="#000000" stroke-width="2" stroke-opacity="0.200000" points="294.56,-894.06 300.56,-891.96 294.56,-889.86 294.56,-894.06"/>
</g>
<!-- src/shared/manifest.ts -->
<g id="node31" class="node">
<title>src/shared/manifest.ts</title>
<g id="a_node31"><a xlink:href="src/shared/manifest.ts" xlink:title="manifest.ts">
<path fill="#ddfeff" stroke="black" d="M703.5,-996.96C703.5,-996.96 648.5,-996.96 648.5,-996.96 645.5,-996.96 642.5,-993.96 642.5,-990.96 642.5,-990.96 642.5,-984.96 642.5,-984.96 642.5,-981.96 645.5,-978.96 648.5,-978.96 648.5,-978.96 703.5,-978.96 703.5,-978.96 706.5,-978.96 709.5,-981.96 709.5,-984.96 709.5,-984.96 709.5,-990.96 709.5,-990.96 709.5,-993.96 706.5,-996.96 703.5,-996.96"/>
<text text-anchor="start" x="650.5" y="-985.76" font-family="Helvetica,sans-Serif" font-size="9.00">manifest.ts</text>
</a>
</g>
</g>
<!-- src/scenes/loader&#45;scene.ts&#45;&gt;src/shared/manifest.ts -->
<g id="edge57" class="edge">
<title>src/scenes/loader&#45;scene.ts&#45;&gt;src/shared/manifest.ts</title>
<path fill="none" stroke="#000000" stroke-width="2" stroke-opacity="0.200000" d="M221.3,-901.46C237.34,-907.45 258.93,-914.96 278.5,-919.96 406.01,-952.57 560.64,-974.02 633.37,-983.07"/>
<polygon fill="#000000" fill-opacity="0.200000" stroke="#000000" stroke-width="2" stroke-opacity="0.200000" points="633.03,-985.14 639.24,-983.79 633.54,-980.97 633.03,-985.14"/>
</g>
<!-- src/main.ts -->
<g id="node28" class="node">
<title>src/main.ts</title>
<g id="a_node28"><a xlink:href="src/main.ts" xlink:title="main.ts">
<path fill="#ddfeff" stroke="black" d="M64,-106.96C64,-106.96 22,-106.96 22,-106.96 19,-106.96 16,-103.96 16,-100.96 16,-100.96 16,-94.96 16,-94.96 16,-91.96 19,-88.96 22,-88.96 22,-88.96 64,-88.96 64,-88.96 67,-88.96 70,-91.96 70,-94.96 70,-94.96 70,-100.96 70,-100.96 70,-103.96 67,-106.96 64,-106.96"/>
<text text-anchor="start" x="26" y="-95.76" font-family="Helvetica,sans-Serif" font-size="9.00">main.ts</text>
</a>
</g>
</g>
<!-- src/main.ts&#45;&gt;src/index.ts -->
<g id="edge52" class="edge">
<title>src/main.ts&#45;&gt;src/index.ts</title>
<path fill="none" stroke="#000000" stroke-width="2" stroke-opacity="0.200000" d="M70.26,-91.95C71.73,-91.61 73.22,-91.27 74.71,-90.93"/>
<polygon fill="#000000" fill-opacity="0.200000" stroke="#000000" stroke-width="2" stroke-opacity="0.200000" points="74.9,-93.04 80.28,-89.66 73.96,-88.95 74.9,-93.04"/>
</g>
<!-- src/style.css -->
<g id="node29" class="node">
<title>src/style.css</title>
<g id="a_node29"><a xlink:href="src/style.css" xlink:title="style.css">
<path fill="#ffffcc" stroke="black" d="M132,-121.96C132,-121.96 89,-121.96 89,-121.96 86,-121.96 83,-118.96 83,-115.96 83,-115.96 83,-109.96 83,-109.96 83,-106.96 86,-103.96 89,-103.96 89,-103.96 132,-103.96 132,-103.96 135,-103.96 138,-106.96 138,-109.96 138,-109.96 138,-115.96 138,-115.96 138,-118.96 135,-121.96 132,-121.96"/>
<text text-anchor="start" x="91" y="-110.76" font-family="Helvetica,sans-Serif" font-size="9.00">style.css</text>
</a>
</g>
</g>
<!-- src/main.ts&#45;&gt;src/style.css -->
<g id="edge53" class="edge">
<title>src/main.ts&#45;&gt;src/style.css</title>
<path fill="none" stroke="#000000" stroke-width="2" stroke-opacity="0.200000" d="M70.26,-103.98C71.55,-104.27 72.86,-104.57 74.17,-104.87"/>
<polygon fill="#000000" fill-opacity="0.200000" stroke="#000000" stroke-width="2" stroke-opacity="0.200000" points="73.53,-106.88 79.85,-106.17 74.47,-102.79 73.53,-106.88"/>
</g>
<!-- src/scenes/game&#45;scene.ts&#45;&gt;src/game/managers/sceneManager/scene&#45;manager.ts -->
<g id="edge54" class="edge">
<title>src/scenes/game&#45;scene.ts&#45;&gt;src/game/managers/sceneManager/scene&#45;manager.ts</title>
<path fill="none" stroke="#000000" stroke-width="2" stroke-opacity="0.200000" d="M303.7,-889.02C286.76,-885.52 268.75,-878.36 258.25,-863.96 238.54,-836.94 240.97,-290.6 258.25,-261.96 267.75,-246.21 284.64,-235.58 301.05,-228.55"/>
<polygon fill="#000000" fill-opacity="0.200000" stroke="#000000" stroke-width="2" stroke-opacity="0.200000" points="301.41,-230.66 306.21,-226.49 299.86,-226.76 301.41,-230.66"/>
</g>
<!-- src/shared/functors/index.ts -->
<g id="node32" class="node">
<title>src/shared/functors/index.ts</title>
<g id="a_node32"><a xlink:href="src/shared/functors/index.ts" xlink:title="no&#45;orphans">
<path fill="#ccffcc" stroke="orange" d="M697,-704.96C697,-704.96 655,-704.96 655,-704.96 652,-704.96 649,-701.96 649,-698.96 649,-698.96 649,-692.96 649,-692.96 649,-689.96 652,-686.96 655,-686.96 655,-686.96 697,-686.96 697,-686.96 700,-686.96 703,-689.96 703,-692.96 703,-692.96 703,-698.96 703,-698.96 703,-701.96 700,-704.96 697,-704.96"/>
<text text-anchor="start" x="657.5" y="-693.76" font-family="Helvetica,sans-Serif" font-size="9.00" fill="orange">index.ts</text>
</a>
</g>
</g>
</g>
</svg>
